# xmcd
#
# Track frame offsets:
#	150
#	17853
#	34361
#	63767
#	79686
#	99369
#	117775
#	138949
#	156812
#	176465
#
# Disc length: 2588 seconds
#
# Revision: 0
# Processed by: cddbd v1.5.2PL0 Copyright (c) Steve Scherf et al.
# Submitted via: EZCDAudioConverter 2.1.7.1
#
DISCID=740a1a0a
DTITLE=Poison - Great Big Hits Live! Bootleg
DYEAR=1900
DGENRE=
TTITLE0=Look What The Cat Dragged It
TTITLE1=I Want Action
TTITLE2=Something To Believe In
TTITLE3=Love On The Rocks
TTITLE4=Fallen Angel
TTITLE5=Let It Play
TTITLE6=Every Rose Has Its Thorn
TTITLE7=Unskinny Bop
TTITLE8=Nothin' But A Good Time
TTITLE9=Talk Dirty To Me
EXTD=
EXTT0=
EXTT1=
EXTT2=
EXTT3=
EXTT4=
EXTT5=
EXTT6=
EXTT7=
EXTT8=
EXTT9=
PLAYORDER=
